<svg width="96" height="96" viewBox="0 0 96 96" fill="none" xmlns="http://www.w3.org/2000/svg">
<g clip-path="url(#clip0_2_4)">
<path d="M37.6 42L56.66 8.98C53.88 8.36 50.98 8 48 8C38.4 8 29.62 11.38 22.72 17.02L37.38 42.4L37.6 42ZM86.16 36C82.48 24.3 73.56 14.96 62.18 10.64L47.54 36H86.16ZM87.2 40H57.24L58.4 42L77.46 75C83.98 67.88 88 58.42 88 48C88 45.26 87.72 42.58 87.2 40ZM34.14 48L18.54 21C12.02 28.12 8 37.58 8 48C8 50.74 8.28 53.42 8.8 56H38.76L34.14 48ZM9.84 60C13.52 71.7 22.44 81.04 33.82 85.36L48.46 60H9.84ZM54.92 60L39.32 87.02C42.12 87.64 45.02 88 48 88C57.6 88 66.38 84.62 73.28 78.98L58.62 53.6L54.92 60Z" fill="white"/>
</g>
<defs>
<clipPath id="clip0_2_4">
<rect width="96" height="96" fill="white"/>
</clipPath>
</defs>
</svg>
